<svg width="100%" viewBox="0 0 680 345" role="img" xmlns="http://www.w3.org/2000/svg">
  <title>TripAIO logo with tagline</title>
  <desc>Retro VW van beach logo with TripAIO wordmark and tagline</desc>
  <circle cx="270" cy="130" r="72" fill="#e8692a"/>
  <path d="M160 200 Q155 155 158 120 Q162 100 168 85 Q170 70 166 55 Q172 68 170 82 Q178 65 176 48 Q182 63 178 80 Q186 60 188 45 Q192 62 186 82 Q194 68 198 55 Q198 72 192 88 Q198 78 205 70 Q202 84 194 95 Q198 95 205 92 Q198 102 190 105 Q188 140 185 200Z" fill="#2a2a2a"/>
  <path d="M490 200 Q492 158 490 122 Q488 102 484 88 Q482 72 486 55 Q480 68 482 82 Q474 65 476 48 Q470 63 474 80 Q466 60 464 45 Q460 62 466 82 Q458 68 454 55 Q454 72 460 88 Q454 78 448 70 Q450 84 458 95 Q454 95 446 92 Q454 102 462 105 Q464 140 466 200Z" fill="#2a2a2a"/>
  <path d="M100 210 Q105 185 112 165 Q116 148 118 130 Q122 110 119 90 Q125 105 123 122 Q130 105 128 88 Q135 105 131 122 Q138 108 142 95 Q140 112 134 125 Q140 118 148 113 Q142 125 134 132 Q138 145 140 165 Q142 185 144 210Z" fill="#2a2a2a"/>
  <path d="M568 210 Q563 185 558 165 Q554 148 552 130 Q548 110 551 90 Q545 105 547 122 Q540 105 542 88 Q535 105 539 122 Q532 108 528 95 Q530 112 536 125 Q530 118 522 113 Q528 125 536 132 Q532 145 530 165 Q528 185 526 210Z" fill="#2a2a2a"/>
  <path d="M55 220 Q62 195 70 175 Q76 158 77 142 Q80 125 77 108 Q83 122 81 136 Q88 120 86 104 Q93 119 89 135 Q96 120 102 108 Q99 124 93 137 Q100 130 108 126 Q102 138 94 144 Q96 158 98 175 Q100 190 102 210Z" fill="#2a2a2a"/>
  <rect x="175" y="148" width="310" height="68" rx="6" fill="#fdf3e3" stroke="#2a2a2a" stroke-width="2.5"/>
  <rect x="175" y="185" width="310" height="34" rx="0" fill="#6a9ab5"/>
  <rect x="175" y="185" width="310" height="3" fill="#4a7a95"/>
  <rect x="175" y="148" width="310" height="40" rx="0" fill="#fdf3e3"/>
  <rect x="175" y="148" width="310" height="68" rx="6" fill="none" stroke="#2a2a2a" stroke-width="2.5"/>
  <rect x="183" y="155" width="52" height="34" rx="4" fill="#dde8ec" stroke="#2a2a2a" stroke-width="1.8"/>
  <rect x="242" y="155" width="38" height="34" rx="4" fill="#dde8ec" stroke="#2a2a2a" stroke-width="1.8"/>
  <rect x="287" y="155" width="38" height="34" rx="4" fill="#dde8ec" stroke="#2a2a2a" stroke-width="1.8"/>
  <rect x="332" y="155" width="38" height="34" rx="4" fill="#dde8ec" stroke="#2a2a2a" stroke-width="1.8"/>
  <rect x="377" y="155" width="38" height="34" rx="4" fill="#dde8ec" stroke="#2a2a2a" stroke-width="1.8"/>
  <rect x="422" y="155" width="55" height="34" rx="4" fill="#dde8ec" stroke="#2a2a2a" stroke-width="1.8"/>
  <path d="M183 148 L175 138 L175 148Z" fill="#2a2a2a"/>
  <rect x="175" y="133" width="12" height="15" rx="3" fill="#2a2a2a"/>
  <rect x="177" y="193" width="8" height="14" rx="2" fill="#fdf3e3" stroke="#2a2a2a" stroke-width="1.2"/>
  <rect x="175" y="215" width="310" height="16" rx="0" fill="#5a8aa5"/>
  <rect x="175" y="229" width="310" height="8" rx="0" fill="#4a7a95"/>
  <path d="M175 148 Q172 145 172 135 L172 237 Q172 240 175 240" fill="none" stroke="#2a2a2a" stroke-width="2.5"/>
  <path d="M485 148 Q488 145 488 135 L488 237 Q488 240 485 240" fill="none" stroke="#2a2a2a" stroke-width="2.5"/>
  <circle cx="210" cy="242" r="22" fill="#2a2a2a" stroke="#2a2a2a" stroke-width="2"/>
  <circle cx="210" cy="242" r="13" fill="#777"/>
  <circle cx="210" cy="242" r="6" fill="#2a2a2a"/>
  <circle cx="210" cy="242" r="2.5" fill="#aaa"/>
  <circle cx="450" cy="242" r="22" fill="#2a2a2a" stroke="#2a2a2a" stroke-width="2"/>
  <circle cx="450" cy="242" r="13" fill="#777"/>
  <circle cx="450" cy="242" r="6" fill="#2a2a2a"/>
  <circle cx="450" cy="242" r="2.5" fill="#aaa"/>
  <circle cx="215" cy="173" r="18" fill="#fdf3e3" stroke="#2a2a2a" stroke-width="2"/>
  <circle cx="215" cy="173" r="12" fill="none" stroke="#2a2a2a" stroke-width="1.8"/>
  <path d="M209 173 L215 167 L221 173 L215 179Z" fill="none" stroke="#2a2a2a" stroke-width="1.5"/>
  <circle cx="215" cy="173" r="3" fill="#2a2a2a"/>
  <rect x="258" y="131" width="145" height="20" rx="4" fill="#6a9ab5" stroke="#2a2a2a" stroke-width="1.8"/>
  <rect x="268" y="127" width="18" height="8" rx="3" fill="#e8692a" stroke="#2a2a2a" stroke-width="1.2"/>
  <rect x="292" y="125" width="22" height="10" rx="3" fill="#f5c842" stroke="#2a2a2a" stroke-width="1.2"/>
  <rect x="320" y="127" width="18" height="8" rx="3" fill="#e85050" stroke="#2a2a2a" stroke-width="1.2"/>
  <rect x="344" y="126" width="22" height="9" rx="3" fill="#f5c842" stroke="#2a2a2a" stroke-width="1.2"/>
  <rect x="370" y="127" width="18" height="8" rx="3" fill="#6a9ab5" stroke="#2a2a2a" stroke-width="1.2"/>
  <rect x="150" y="237" width="25" height="6" rx="3" fill="#4a7a95" stroke="#2a2a2a" stroke-width="1.2"/>
  <rect x="485" y="237" width="25" height="6" rx="3" fill="#4a7a95" stroke="#2a2a2a" stroke-width="1.2"/>
  <text x="340" y="293" text-anchor="middle" font-family="Georgia,serif" font-size="44" font-weight="700" fill="#2c4a5a" letter-spacing="2">Trip<tspan fill="#e8692a" font-weight="400">AIO</tspan></text>
  <line x1="175" y1="304" x2="240" y2="304" stroke="#e8692a" stroke-width="1" opacity="0.6"/>
  <line x1="440" y1="304" x2="505" y2="304" stroke="#e8692a" stroke-width="1" opacity="0.6"/>
  <text x="340" y="320" text-anchor="middle" font-family="Georgia,serif" font-size="13" font-style="italic" fill="#7a6a58" letter-spacing="1">embrace the journey · for it shapes the destination</text>
</svg>